<svg width="34" height="34" viewBox="0 0 34 34" fill="none" xmlns="http://www.w3.org/2000/svg">
<path d="M30.8912 14.2255H29.75V14.1667H17V19.8334H25.0063C23.8383 23.1321 20.6997 25.5 17 25.5C12.3059 25.5 8.50004 21.6942 8.50004 17C8.50004 12.3059 12.3059 8.50004 17 8.50004C19.1668 8.50004 21.1381 9.31746 22.6391 10.6527L26.6461 6.64562C24.116 4.28758 20.7315 2.83337 17 2.83337C9.1765 2.83337 2.83337 9.1765 2.83337 17C2.83337 24.8236 9.1765 31.1667 17 31.1667C24.8236 31.1667 31.1667 24.8236 31.1667 17C31.1667 16.0502 31.069 15.123 30.8912 14.2255Z" fill="#FFC107"/>
<path d="M4.4668 10.4062L9.12125 13.8196C10.3807 10.7015 13.4308 8.50004 17 8.50004C19.1668 8.50004 21.1381 9.31746 22.6391 10.6527L26.6461 6.64562C24.116 4.28758 20.7315 2.83337 17 2.83337C11.5586 2.83337 6.83971 5.90542 4.4668 10.4062Z" fill="#FF3D00"/>
<path d="M17.0001 31.1667C20.6593 31.1667 23.9842 29.7663 26.4981 27.489L22.1135 23.7787C20.6434 24.8968 18.847 25.5015 17.0001 25.5C13.3153 25.5 10.1866 23.1505 9.00793 19.8716L4.38818 23.431C6.73277 28.0188 11.4942 31.1667 17.0001 31.1667Z" fill="#4CAF50"/>
<path d="M30.8911 14.2254H29.75V14.1666H17V19.8333H25.0063C24.4476 21.4033 23.4411 22.7751 22.1113 23.7794L22.1135 23.778L26.498 27.4883C26.1878 27.7702 31.1667 24.0833 31.1667 17C31.1667 16.0501 31.0689 15.1229 30.8911 14.2254Z" fill="#1976D2"/>
</svg>
