<svg width="337" height="337" viewBox="0 0 337 337" fill="none" xmlns="http://www.w3.org/2000/svg">
<path d="M45.6354 135.502C43.9972 134.332 43.0003 132.872 42.6445 131.121C42.2888 129.371 42.8177 127.555 44.2313 125.673C58.741 105.781 76.939 90.3347 98.8252 79.3354C120.712 68.3361 144.053 62.8365 168.851 62.8365C193.658 62.8365 217.061 68.1629 239.059 78.8159C261.058 89.4688 279.429 104.854 294.173 124.971C295.577 127.077 296.045 128.949 295.577 130.588C295.109 132.226 294.173 133.63 292.769 134.8C291.365 135.97 289.726 136.499 287.854 136.387C285.982 136.274 284.344 135.277 282.94 133.396C270.068 115.142 253.513 101.161 233.274 91.4534C213.035 81.7459 191.561 76.8875 168.851 76.8781C146.15 76.8781 124.854 81.7365 104.961 91.4534C85.0691 101.17 68.5701 115.151 55.4646 133.396C54.0604 135.502 52.4222 136.672 50.55 136.906C48.6778 137.14 47.0396 136.672 45.6354 135.502ZM208.519 308.566C184.18 302.481 164.287 290.368 148.842 272.226C133.396 254.084 125.673 231.912 125.673 205.71C125.673 194.009 129.885 184.18 138.31 176.223C146.735 168.266 156.916 164.287 168.851 164.287C180.786 164.287 190.967 168.266 199.392 176.223C207.817 184.18 212.029 194.009 212.029 205.71C212.029 213.433 214.955 219.93 220.805 225.2C226.656 230.471 233.56 233.101 241.517 233.092C249.474 233.092 256.26 230.461 261.877 225.2C267.494 219.939 270.302 213.443 270.302 205.71C270.302 178.563 260.356 155.745 240.464 137.257C220.571 118.769 196.817 109.525 169.202 109.525C141.587 109.525 117.833 118.769 97.9406 137.257C78.0483 155.745 68.1021 178.446 68.1021 205.359C68.1021 210.976 68.631 217.997 69.6888 226.422C70.7466 234.847 73.2601 244.676 77.2292 255.909C77.9312 258.016 77.8751 259.888 77.0607 261.526C76.2463 263.164 74.8982 264.334 73.0167 265.036C71.1444 265.739 69.3331 265.682 67.5825 264.868C65.832 264.054 64.601 262.706 63.8896 260.824C60.3792 251.697 57.8657 242.631 56.3492 233.625C54.8327 224.62 54.0698 215.315 54.0604 205.71C54.0604 174.585 65.3546 148.491 87.943 127.428C110.531 106.366 137.501 95.8344 168.851 95.8344C200.445 95.8344 227.592 106.366 250.293 127.428C272.993 148.491 284.344 174.585 284.344 205.71C284.344 217.412 280.192 227.18 271.889 235.015C263.585 242.851 253.461 246.773 241.517 246.782C229.581 246.782 219.345 242.865 210.808 235.029C202.27 227.194 197.997 217.421 197.988 205.71C197.988 197.988 195.123 191.491 189.394 186.221C183.665 180.95 176.817 178.32 168.851 178.329C160.894 178.329 154.046 180.964 148.308 186.235C142.57 191.505 139.705 197.997 139.715 205.71C139.715 228.411 146.445 247.367 159.906 262.579C173.368 277.791 190.742 288.439 212.029 294.524C214.135 295.226 215.54 296.396 216.242 298.034C216.944 299.673 217.061 301.428 216.593 303.3C216.125 304.938 215.189 306.342 213.784 307.513C212.38 308.683 210.625 309.034 208.519 308.566ZM91.2708 62.1344C89.3986 63.3045 87.5264 63.5994 85.6542 63.019C83.7819 62.4386 82.3778 61.2076 81.4417 59.326C80.5056 57.4538 80.2715 55.7595 80.7396 54.243C81.2076 52.7265 82.3778 51.3785 84.25 50.199C97.3556 43.1781 111.046 37.7955 125.322 34.0511C139.598 30.3066 154.107 28.4344 168.851 28.4344C183.829 28.4344 198.456 30.2504 212.731 33.8826C227.007 37.5147 240.815 42.7194 254.154 49.4969C256.26 50.667 257.491 52.0712 257.847 53.7094C258.203 55.3476 258.025 56.9858 257.314 58.624C256.611 60.2622 255.441 61.5493 253.803 62.4854C252.165 63.4215 250.176 63.3045 247.835 62.1344C235.432 55.8156 222.617 50.9619 209.389 47.5732C196.162 44.1845 182.649 42.4854 168.851 42.4761C155.277 42.4761 141.938 44.0581 128.832 47.2221C115.727 50.3862 103.206 55.3569 91.2708 62.1344ZM132.694 303.651C118.886 289.141 108.299 274.341 100.931 259.251C93.5643 244.161 89.876 226.314 89.8667 205.71C89.8667 184.414 97.5896 166.45 113.035 151.819C128.481 137.187 147.086 129.876 168.851 129.885C190.616 129.885 209.338 137.201 225.018 151.833C240.698 166.464 248.538 184.423 248.538 205.71C248.538 207.817 247.896 209.516 246.614 210.808C245.331 212.099 243.632 212.741 241.517 212.731C239.644 212.731 238.006 212.09 236.602 210.808C235.198 209.525 234.496 207.826 234.496 205.71C234.496 188.158 227.999 173.475 215.006 161.662C202.013 149.848 186.628 143.936 168.851 143.927C151.065 143.927 135.797 149.839 123.047 161.662C110.297 173.485 103.918 188.168 103.908 205.71C103.908 224.667 107.185 240.758 113.738 253.986C120.29 267.213 129.885 280.492 142.523 293.822C143.927 295.226 144.629 296.864 144.629 298.736C144.629 300.609 143.927 302.247 142.523 303.651C141.119 305.055 139.481 305.757 137.608 305.757C135.736 305.757 134.098 305.055 132.694 303.651ZM238.708 279.78C217.88 279.78 199.799 272.759 184.465 258.718C169.132 244.676 161.47 227.007 161.479 205.71C161.479 203.838 162.125 202.2 163.417 200.796C164.709 199.392 166.403 198.69 168.5 198.69C170.606 198.69 172.305 199.392 173.597 200.796C174.889 202.2 175.53 203.838 175.521 205.71C175.521 223.262 181.84 237.655 194.477 248.889C207.115 260.122 221.858 265.739 238.708 265.739C240.112 265.739 242.102 265.622 244.676 265.387C247.25 265.153 249.942 264.802 252.75 264.334C254.856 263.866 256.672 264.161 258.198 265.219C259.724 266.277 260.716 267.854 261.175 269.951C261.643 271.823 261.292 273.461 260.122 274.866C258.952 276.27 257.431 277.206 255.558 277.674C251.346 278.844 247.662 279.49 244.508 279.612C241.353 279.733 239.42 279.79 238.708 279.78Z" fill="#924BDF"/>
</svg>
